<?xml version="1.0" standalone="no"?>
<!DOCTYPE svg PUBLIC "-//W3C//DTD SVG 20010904//EN"
 "http://www.w3.org/TR/2001/REC-SVG-20010904/DTD/svg10.dtd">
<svg version="1.0" xmlns="http://www.w3.org/2000/svg"
 width="140.000000pt" height="71.000000pt" viewBox="0 0 140.000000 71.000000"
 preserveAspectRatio="xMidYMid meet">

<g transform="translate(0.000000,71.000000) scale(0.100000,-0.100000)"
fill="#000000" stroke="none">
<path d="M370 635 l0 -75 162 -198 c88 -108 162 -198 164 -200 1 -2 77 86 168
195 l166 198 0 78 0 77 -330 0 -330 0 0 -75z m70 44 c0 -11 -4 -17 -10 -14 -5
3 -10 13 -10 21 0 8 5 14 10 14 6 0 10 -9 10 -21z m40 -26 c-1 -44 -2 -47 -15
-29 -20 26 -20 76 0 76 11 0 15 -12 15 -47z m40 32 c0 -8 -2 -15 -4 -15 -2 0
-6 7 -10 15 -3 8 -1 15 4 15 6 0 10 -7 10 -15z m50 -1 c0 -9 -5 -12 -12 -8 -8
5 -9 2 -5 -9 3 -9 2 -19 -3 -22 -11 -7 -13 15 -4 39 8 21 24 21 24 0z m40 7
c0 -5 -7 -14 -15 -21 -12 -10 -15 -10 -15 2 0 8 3 18 7 21 9 10 23 9 23 -2z
m190 5 c0 -3 -4 -8 -10 -11 -5 -3 -10 -1 -10 4 0 6 5 11 10 11 6 0 10 -2 10
-4z m50 0 c0 -3 -4 -8 -10 -11 -5 -3 -10 -1 -10 4 0 6 5 11 10 11 6 0 10 -2
10 -4z m40 -15 c-13 -25 -13 -41 0 -21 7 11 10 7 10 -18 0 -49 -22 -35 -27 16
-3 33 -1 42 12 42 12 0 14 -4 5 -19z m50 -20 c0 -22 -6 -44 -15 -51 -13 -11
-15 -6 -15 39 0 39 4 51 15 51 11 0 15 -11 15 -39z m40 25 c0 -7 -7 -19 -15
-26 -13 -11 -15 -8 -15 14 0 16 5 26 15 26 8 0 15 -6 15 -14z m-160 -12 c0 -8
-5 -12 -10 -9 -6 4 -8 11 -5 16 9 14 15 11 15 -7z m-5 -29 c29 -14 60 -34 70
-45 24 -27 11 -40 -68 -66 l-58 -19 -17 22 c-24 30 -58 38 -86 20 -21 -14 -24
-13 -49 18 -15 19 -37 35 -49 37 -23 3 -23 4 5 22 77 52 162 56 252 11z m42
-2 c-3 -3 -11 -2 -17 2 -8 5 -7 11 2 22 12 15 13 14 16 -1 2 -10 1 -20 -1 -23z
m-346 -26 c-8 -8 -11 -3 -11 19 1 25 2 27 11 11 8 -14 8 -22 0 -30z m-61 -12
c10 -12 10 -19 2 -27 -9 -9 -12 -8 -12 5 0 9 -7 17 -15 17 -21 0 -31 -30 -14
-42 12 -8 12 -9 0 -6 -25 7 -36 34 -22 52 17 20 45 20 61 1z m567 -30 c-2 -5
-12 -10 -23 -10 -12 0 -19 -7 -19 -20 0 -11 -6 -21 -12 -21 -7 -1 -20 -2 -29
-3 -14 -1 -14 -4 -4 -16 22 -26 5 -26 -20 0 -23 25 -23 25 -4 44 19 18 19 18
40 -1 l22 -20 -2 25 c0 14 -4 23 -8 21 -9 -6 -20 14 -14 25 7 11 77 -11 73
-24z m-550 -42 c-15 -15 -30 -22 -37 -18 -9 5 -4 14 16 30 38 30 54 20 21 -12z
m381 -15 c-9 -13 -24 -24 -34 -26 -14 -2 -12 3 11 23 37 31 42 31 23 3z m-314
-19 c14 -17 24 -35 20 -40 -3 -5 3 -9 13 -9 11 -1 4 -7 -16 -16 -41 -17 -48
-13 -27 18 18 25 21 42 6 33 -5 -3 -10 -1 -10 6 0 7 -10 3 -24 -10 -18 -17
-25 -19 -29 -8 -3 7 4 19 14 26 11 6 17 16 14 21 -14 23 16 7 39 -21z m241 1
c-3 -5 -17 -10 -31 -10 -13 0 -24 5 -24 10 0 6 14 10 31 10 17 0 28 -4 24 -10z
m133 -2 c20 -20 14 -48 -13 -60 -13 -6 -22 -15 -19 -19 3 -5 -5 -20 -18 -33
-13 -13 -28 -32 -34 -42 -14 -23 -22 -24 -53 -2 l-23 17 33 40 c19 22 42 43
52 47 9 3 17 14 17 24 0 11 8 24 18 29 22 13 26 13 40 -1z m-138 -23 c-28 -16
-60 -20 -44 -6 8 9 36 18 59 19 6 1 -1 -5 -15 -13z m-140 -104 c0 -29 -25 -45
-49 -31 -25 13 -27 45 -4 59 23 12 53 -4 53 -28z m54 -63 c-3 -5 -13 -8 -22
-6 -10 1 -23 -1 -29 -5 -7 -5 -18 -5 -24 -1 -7 4 -1 15 17 29 26 21 31 22 46
8 10 -9 15 -20 12 -25z m56 21 c-12 -8 -9 -9 13 -5 19 5 29 2 33 -9 7 -17 -12
-45 -30 -44 -7 0 -6 2 2 6 23 9 12 23 -13 17 -20 -5 -25 -2 -25 13 0 22 8 33
24 33 6 0 4 -5 -4 -11z m-26 -92 c-13 -34 -40 -11 -29 24 6 18 9 19 21 7 8 -8
12 -22 8 -31z"/>
<path d="M866 481 c-8 -12 21 -34 34 -26 8 5 8 11 -1 21 -13 16 -25 18 -33 5z"/>
<path d="M820 421 c0 -13 29 -35 37 -28 7 8 -15 37 -28 37 -5 0 -9 -4 -9 -9z"/>
<path d="M796 373 c0 -15 5 -28 11 -30 15 -5 23 33 10 46 -17 17 -23 13 -21
-16z"/>
<path d="M583 375 c-3 -9 -3 -18 0 -21 9 -9 27 6 27 22 0 19 -19 18 -27 -1z"/>
</g>
</svg>
